<svg width="252" height="249" viewBox="0 0 252 249" fill="none" xmlns="http://www.w3.org/2000/svg">
<path d="M55.5 3.03761C59.62 1.92761 64.12 0.827614 65.5 0.597614C66.87 0.367614 93.65 0.117614 125 0.0276138C171.66 -0.0923862 183.45 0.147614 190 1.36761C194.4 2.18761 201.15 4.13761 205 5.71761C208.85 7.28761 213.8 9.70761 216 11.0876C218.2 12.4676 222.7 15.8376 226 18.5676C229.3 21.2976 234.33 26.6576 237.17 30.4676C240.02 34.2876 243.72 40.3376 245.39 43.9076C247.06 47.4776 249.24 53.3376 250.22 56.9076C251.79 62.6476 252 68.0576 251.97 103.408C251.94 138.018 251.7 144.348 250.19 150.408C249.23 154.258 246.35 161.678 243.78 166.908C239.8 175.018 237.72 177.808 229.56 185.948C222.17 193.318 218.18 196.428 212 199.598C207.6 201.858 200.85 204.658 197 205.828C193.15 206.998 187.3 208.188 184 208.478C180.7 208.768 175.75 209.178 173 209.388C170.25 209.598 157.2 209.788 120 209.848L113 215.868C109.15 219.178 99.53 227.188 91.62 233.648C83.71 240.118 76.06 246.198 74.62 247.148C73.18 248.108 70.31 248.898 68.25 248.898C65.54 248.908 63.67 248.138 61.52 246.158C59.43 244.238 58.4 242.208 58.09 239.408C57.84 237.208 57.62 229.108 57.55 207.408L53.27 206.048C50.92 205.298 46.07 203.208 42.5 201.408C38.93 199.608 33.11 195.948 29.58 193.268C26.04 190.598 20.74 185.708 17.78 182.408C14.83 179.108 10.44 172.578 8.04 167.908C5.64 163.238 2.85 156.488 1.84 152.908C0.19 147.078 0 142.158 0 104.908C0 68.4776 0.21 62.6176 1.76 56.9076C2.72 53.3376 5.29 46.8076 7.46 42.4076C9.63 38.0076 13.65 31.7076 16.4 28.4076C19.15 25.1076 24.01 20.2576 27.2 17.6376C30.39 15.0176 36.37 11.1176 40.5 8.95761C44.62 6.80761 51.37 4.14761 55.5 3.03761Z" fill="#2D9B51"/>
</svg>